<?xml version="1.0" standalone="no"?>
<!DOCTYPE svg PUBLIC "-//W3C//DTD SVG 20010904//EN"
 "http://www.w3.org/TR/2001/REC-SVG-20010904/DTD/svg10.dtd">
<svg version="1.0" xmlns="http://www.w3.org/2000/svg"
 width="128.000000pt" height="128.000000pt" viewBox="0 0 128.000000 128.000000"
 preserveAspectRatio="xMidYMid meet">

<g transform="translate(0.000000,128.000000) scale(0.100000,-0.100000)"
fill="#000000" stroke="none">
<path d="M0 635 l0 -635 640 0 640 0 0 635 0 635 -640 0 -640 0 0 -635z m690
311 c-1 -6 -16 -65 -34 -131 -24 -86 -38 -121 -50 -123 -21 -4 -20 8 4 98 48
174 50 179 65 174 8 -4 15 -11 15 -18z m-130 -19 c0 -7 -25 -32 -56 -56 -64
-50 -67 -37 22 -108 31 -25 36 -34 27 -44 -10 -10 -28 0 -88 45 -41 32 -75 60
-75 62 0 1 35 30 77 63 73 57 93 65 93 38z m269 -51 c60 -48 62 -51 43 -65
-129 -102 -133 -104 -145 -92 -13 13 -4 23 71 82 l33 26 -55 42 c-53 41 -65
59 -50 74 7 7 14 2 103 -67z m15 -369 c6 -9 6 -20 2 -24 -5 -4 -11 -2 -13 5
-3 6 -9 12 -14 12 -5 0 0 -17 12 -38 25 -42 21 -72 -10 -72 -20 0 -35 25 -25
42 5 7 12 4 21 -7 21 -29 15 -6 -8 31 -16 27 -18 37 -9 54 13 23 28 22 44 -3z
m-586 -39 c-7 -37 -6 -54 1 -56 19 -6 12 -22 -10 -22 -20 0 -21 4 -16 52 4 32
2 57 -4 65 -9 10 -6 13 13 13 25 0 25 -1 16 -52z m72 43 c0 -5 -6 -12 -12 -14
-10 -4 -9 -8 2 -17 11 -9 12 -13 3 -17 -15 -6 -18 -53 -3 -53 6 0 10 -4 10
-10 0 -5 -9 -10 -20 -10 -18 0 -20 7 -20 65 0 58 2 65 20 65 11 0 20 -4 20 -9z
m66 -57 c1 -58 -1 -61 -23 -61 -22 0 -23 3 -23 64 0 61 1 64 23 61 20 -3 22
-9 23 -64z m72 11 c3 -61 -9 -85 -35 -69 -19 12 -28 62 -18 101 4 18 11 23 28
21 19 -3 22 -10 25 -53z m72 45 c0 -5 -4 -10 -10 -10 -5 0 -10 -25 -10 -55 0
-30 -4 -55 -10 -55 -5 0 -10 25 -10 55 0 30 -4 55 -10 55 -5 0 -10 5 -10 10 0
6 14 10 30 10 17 0 30 -4 30 -10z m66 -14 c9 -38 0 -88 -19 -100 -14 -8 -20
-8 -27 4 -11 17 -13 103 -3 113 15 16 43 6 49 -17z m55 2 l2 -23 4 23 c3 14
12 22 24 22 17 0 19 -7 19 -65 0 -37 -4 -65 -10 -65 -5 0 -10 12 -11 28 -1 27
-1 27 -8 3 -10 -36 -31 -38 -32 -4 l-2 28 -4 -27 c-8 -52 -23 -28 -23 37 0 58
2 65 20 65 14 0 20 -7 21 -22z m113 -28 c4 -28 9 -57 12 -65 4 -8 1 -15 -6
-15 -6 0 -14 9 -17 20 -3 11 -9 20 -14 20 -5 0 -9 -9 -9 -20 0 -11 -5 -20 -11
-20 -7 0 -8 19 -3 58 7 65 10 72 28 72 9 0 16 -19 20 -50z m146 40 c0 -5 -4
-10 -10 -10 -5 0 -10 -25 -10 -55 0 -30 -4 -55 -10 -55 -5 0 -10 25 -10 55 0
30 -4 55 -10 55 -5 0 -10 5 -10 10 0 6 14 10 30 10 17 0 30 -4 30 -10z m60 1
c0 -5 -6 -12 -12 -14 -10 -4 -9 -8 2 -17 11 -9 12 -13 3 -17 -15 -6 -18 -53
-3 -53 6 0 10 -4 10 -10 0 -5 -9 -10 -20 -10 -18 0 -20 7 -20 65 0 58 2 65 20
65 11 0 20 -4 20 -9z m68 -55 c-2 -59 -4 -63 -25 -63 -22 0 -23 3 -23 63 0 62
1 64 25 64 25 0 26 -2 23 -64z"/>
<path d="M372 470 c0 -19 2 -27 5 -17 2 9 2 25 0 35 -3 9 -5 1 -5 -18z"/>
<path d="M443 455 c0 -27 2 -38 4 -22 2 15 2 37 0 50 -2 12 -4 0 -4 -28z"/>
<path d="M570 454 c0 -27 4 -43 10 -39 6 3 10 24 10 46 0 21 -4 39 -10 39 -5
0 -10 -21 -10 -46z"/>
<path d="M1022 470 c0 -19 2 -27 5 -17 2 9 2 25 0 35 -3 9 -5 1 -5 -18z"/>
</g>
</svg>
