<?xml version="1.0" standalone="no"?>
<!DOCTYPE svg PUBLIC "-//W3C//DTD SVG 20010904//EN"
 "http://www.w3.org/TR/2001/REC-SVG-20010904/DTD/svg10.dtd">
<svg version="1.0" xmlns="http://www.w3.org/2000/svg"
 width="256.000000pt" height="256.000000pt" viewBox="0 0 256.000000 256.000000"
 preserveAspectRatio="xMidYMid meet">

<g transform="translate(0.000000,256.000000) scale(0.100000,-0.100000)"
fill="#000000" stroke="none">
<path d="M0 1275 l0 -1275 1280 0 1280 0 0 1275 0 1275 -1280 0 -1280 0 0
-1275z m1364 649 c9 -3 16 -12 16 -19 0 -14 -138 -526 -143 -531 -2 -2 -16 0
-33 5 -21 6 -28 13 -26 27 3 19 129 488 137 512 5 13 24 16 49 6z m-252 -59
l18 -23 -115 -92 c-63 -51 -115 -95 -115 -98 0 -4 51 -47 114 -96 93 -72 113
-93 106 -106 -25 -47 -31 -45 -189 81 l-152 121 48 38 c204 164 249 199 258
199 6 0 18 -10 27 -24z m513 -91 c80 -63 145 -119 145 -123 0 -4 -27 -29 -59
-54 -33 -25 -101 -78 -150 -118 l-91 -71 -20 23 c-10 13 -19 27 -20 30 0 4 52
46 115 95 63 49 114 92 115 95 0 5 -185 155 -224 181 -11 7 19 58 34 58 6 0
75 -52 155 -116z m-1095 -731 c0 -5 -8 -56 -19 -115 l-18 -108 24 0 c16 0 23
-6 23 -20 0 -17 -7 -20 -45 -20 -25 0 -45 3 -45 8 0 4 8 55 19 115 17 104 17
107 -1 107 -11 0 -18 7 -18 20 0 17 7 20 40 20 22 0 40 -3 40 -7z m130 -13 c0
-15 -7 -20 -25 -20 -20 0 -25 -5 -25 -25 0 -20 5 -25 25 -25 18 0 25 -5 25
-20 0 -15 -7 -20 -25 -20 -23 0 -25 -3 -25 -50 0 -47 2 -50 25 -50 19 0 25 -5
25 -21 0 -18 -5 -20 -42 -17 l-43 3 -1 125 c0 69 1 128 3 133 2 4 22 7 44 7
32 0 39 -3 39 -20z m124 -2 c19 -26 22 -138 5 -169 -7 -14 -7 -29 0 -50 9 -26
8 -29 -10 -29 -12 0 -24 11 -31 28 l-12 27 -4 -28 c-2 -20 -8 -27 -20 -25 -15
3 -17 20 -20 123 -1 65 0 125 2 132 9 22 73 16 90 -9z m130 6 c23 -22 23 -216
0 -238 -20 -21 -43 -20 -66 1 -25 23 -27 207 -1 235 20 22 46 23 67 2z m174
-6 c3 -13 -3 -18 -22 -18 l-26 0 0 -115 c0 -108 -1 -115 -20 -115 -19 0 -20 7
-20 115 0 108 -1 115 -20 115 -13 0 -20 7 -20 20 0 19 5 21 62 18 50 -2 63 -6
66 -20z m104 5 c25 -23 27 -207 1 -235 -20 -22 -46 -23 -67 -2 -23 22 -23 216
0 238 20 21 43 20 66 -1z m124 -53 l10 -65 7 40 c18 98 17 95 48 95 l29 0 0
-136 c0 -124 -2 -135 -17 -132 -15 3 -18 15 -17 76 0 82 -11 77 -21 -11 -5
-37 -12 -61 -21 -64 -22 -8 -24 -2 -39 84 l-13 78 -1 -82 c-1 -76 -3 -83 -21
-83 -19 0 -20 7 -20 136 l0 135 33 -3 c31 -3 32 -5 43 -68z m226 -20 c9 -47
20 -107 23 -133 6 -44 5 -49 -11 -45 -13 2 -21 15 -25 41 -7 44 -13 52 -34 44
-9 -4 -15 -19 -15 -42 0 -33 -21 -57 -37 -42 -5 6 23 224 33 255 2 7 14 12 26
10 20 -3 25 -13 40 -88z m136 78 c7 -7 12 -27 12 -46 0 -26 -4 -33 -17 -30
-10 2 -18 12 -18 22 0 11 -6 21 -12 23 -24 8 -13 -41 17 -81 32 -42 41 -111
18 -134 -31 -31 -88 1 -88 50 0 21 5 28 20 28 15 0 20 -7 20 -26 0 -16 5 -24
13 -22 23 8 18 37 -17 86 -37 50 -44 88 -26 123 12 22 59 26 78 7z m165 6 c11
-11 -5 -34 -24 -34 -18 0 -19 -9 -19 -115 0 -108 -1 -115 -20 -115 -19 0 -20
7 -20 115 l0 115 -25 0 c-24 0 -34 18 -18 33 8 9 117 9 126 1z m122 -14 c0 -9
-11 -16 -27 -18 -22 -3 -28 -9 -28 -27 0 -18 6 -24 28 -27 16 -2 27 -9 27 -18
0 -9 -11 -16 -27 -18 -26 -3 -28 -6 -28 -52 0 -46 2 -49 28 -52 45 -5 34 -32
-15 -36 l-43 -3 0 136 0 136 43 -3 c29 -2 42 -8 42 -18z m117 3 c14 -13 18
-31 18 -94 0 -43 -5 -81 -10 -84 -10 -6 -8 -23 7 -62 3 -8 -3 -13 -16 -13 -14
0 -23 8 -27 25 -8 31 -25 33 -21 3 1 -14 -4 -23 -15 -26 -16 -3 -18 8 -18 132
l0 136 32 0 c17 0 40 -7 50 -17z"/>
<path d="M732 943 c4 -86 22 -85 26 2 2 54 0 65 -13 65 -13 0 -15 -11 -13 -67z"/>
<path d="M870 915 c0 -73 3 -96 13 -92 8 2 12 30 12 92 0 62 -4 90 -12 93 -10
3 -13 -20 -13 -93z"/>
<path d="M1150 915 c0 -57 4 -95 10 -95 6 0 10 38 10 95 0 57 -4 95 -10 95 -6
0 -10 -38 -10 -95z"/>
<path d="M1499 950 c-7 -35 -4 -48 7 -38 3 4 4 21 2 40 l-3 33 -6 -35z"/>
<path d="M2040 950 c0 -33 0 -63 -1 -67 0 -4 4 -9 10 -11 7 -2 11 21 11 67 0
41 -4 71 -10 71 -6 0 -10 -27 -10 -60z"/>
</g>
</svg>
