<?xml version="1.0" standalone="no"?>
<!DOCTYPE svg PUBLIC "-//W3C//DTD SVG 20010904//EN"
 "http://www.w3.org/TR/2001/REC-SVG-20010904/DTD/svg10.dtd">
<svg version="1.0" xmlns="http://www.w3.org/2000/svg"
 width="64.000000pt" height="64.000000pt" viewBox="0 0 64.000000 64.000000"
 preserveAspectRatio="xMidYMid meet">

<g transform="translate(0.000000,64.000000) scale(0.100000,-0.100000)"
fill="#000000" stroke="none">
<path d="M0 320 l0 -320 320 0 320 0 0 320 0 320 -320 0 -320 0 0 -320z m345
148 c-2 -7 -11 -39 -20 -71 -9 -32 -20 -55 -25 -52 -5 3 -2 28 6 58 22 75 22
77 33 77 6 0 9 -6 6 -12z m-65 -5 c0 -4 -12 -17 -27 -29 l-27 -21 29 -26 c19
-17 25 -26 15 -26 -8 0 -28 11 -45 26 l-29 26 34 28 c34 29 50 36 50 22z m130
-22 l35 -29 -25 -21 c-58 -49 -81 -49 -34 0 l26 27 -26 17 c-25 17 -35 35 -18
35 4 0 23 -13 42 -29z m-280 -218 c0 -20 -3 -33 -7 -29 -10 10 -10 66 0 66 4
0 7 -16 7 -37z m28 2 c-1 -19 -5 -32 -10 -29 -11 7 -10 64 2 64 5 0 9 -16 8
-35z m42 5 c0 -20 -5 -30 -15 -30 -10 0 -15 10 -15 30 0 20 5 30 15 30 10 0
15 -10 15 -30z m30 0 c0 -16 -4 -30 -10 -30 -5 0 -10 14 -10 30 0 17 5 30 10
30 6 0 10 -13 10 -30z m32 0 c-2 -16 -5 -30 -7 -30 -2 0 -5 14 -7 30 -3 19 0
30 7 30 7 0 10 -11 7 -30z m38 0 c0 -16 -4 -30 -10 -30 -5 0 -10 14 -10 30 0
17 5 30 10 30 6 0 10 -13 10 -30z m50 8 l1 -23 12 23 c14 25 27 20 27 -10 0
-11 4 -17 9 -14 5 3 7 15 4 26 -3 11 -1 20 4 20 5 0 10 -16 11 -35 1 -24 -2
-34 -10 -29 -6 4 -31 6 -55 5 -42 -1 -43 0 -43 29 0 23 4 30 20 30 14 0 20 -7
20 -22z m102 -8 c-2 -16 -5 -30 -7 -30 -2 0 -5 14 -7 30 -3 19 0 30 7 30 7 0
10 -11 7 -30z m34 -5 c0 -19 -3 -35 -8 -35 -4 0 -8 16 -8 35 0 19 3 35 8 35 4
0 7 -16 8 -35z m39 25 c8 -13 -4 -50 -16 -50 -5 0 -9 14 -9 30 0 30 13 40 25
20z"/>
</g>
</svg>
